<svg viewBox="0 0 24 24" fill="none" xmlns="http://www.w3.org/2000/svg"><g id="SVGRepo_bgCarrier" stroke-width="0"></g><g id="SVGRepo_tracerCarrier" stroke-linecap="round" stroke-linejoin="round"></g><g id="SVGRepo_iconCarrier"> <path d="M13.6471 16.375L12.0958 14.9623C11.3351 14.2694 10.9547 13.923 10.5236 13.7918C10.1439 13.6762 9.73844 13.6762 9.35878 13.7918C8.92768 13.923 8.5473 14.2694 7.78652 14.9623L4.92039 17.5575M13.6471 16.375L13.963 16.0873C14.7238 15.3944 15.1042 15.048 15.5352 14.9168C15.9149 14.8012 16.3204 14.8012 16.7 14.9168C17.1311 15.048 17.5115 15.3944 18.2723 16.0873L19.4237 17.0896M13.6471 16.375L17.0469 19.4528M17 9C17 10.1046 16.1046 11 15 11C13.8954 11 13 10.1046 13 9C13 7.89543 13.8954 7 15 7C16.1046 7 17 7.89543 17 9ZM21 12C21 16.9706 16.9706 21 12 21C7.02944 21 3 16.9706 3 12C3 7.02944 7.02944 3 12 3C16.9706 3 21 7.02944 21 12Z" stroke="#000000" stroke-width="2" stroke-linecap="round" stroke-linejoin="round"></path> </g></svg>