<svg fill="black" xmlns="http://www.w3.org/2000/svg" viewBox="0 0 490 490" xml:space="preserve"><path d="M440 450V100c0-5.522-4.477-10-10-10h-70c-5.523 0-10 4.478-10 10v350h-10V190c0-5.522-4.477-10-10-10h-70c-5.523 0-10 4.478-10 10v260h-10V250c0-5.522-4.477-10-10-10h-70c-5.523 0-10 4.478-10 10v200h-10V320c0-5.522-4.477-10-10-10H60c-5.523 0-10 4.478-10 10v130H0v20h490v-20zm-320 0H70v-75h50zm0-95H70v-25h50zm100 95h-50V305h50zm0-165h-50v-25h50zm100 165h-50V245h50zm0-225h-50v-25h50zm100 225h-50V155h50zm0-315h-50v-25h50zM57.072 282.072 285 54.143V90h20V30c0-5.522-4.477-10-10-10h-65v20h40.857L42.929 267.929z"/></svg>