<svg  viewBox="0 0 24 24" data-name="Line Color" xmlns="http://www.w3.org/2000/svg" class="icon line-color"><path d="M15 18H9a3 3 0 0 0 3 3h0a3 3 0 0 0 3-3" style="fill:none;stroke:#2ca9bc;stroke-linecap:round;stroke-linejoin:round;stroke-width:2"/><path d="M18 9v4l1.38 1.38a2.12 2.12 0 0 1-1.5 3.62H6.12a2.12 2.12 0 0 1-1.5-3.62L6 13V9a6 6 0 0 1 6-6 6 6 0 0 1 2.88.73" style="fill:none;stroke:#000;stroke-linecap:round;stroke-linejoin:round;stroke-width:2"/><path data-name="secondary" d="M14 6a3 3 0 0 0 3 3h0a3 3 0 0 0 3-3h0a3 3 0 0 0-3-3h0a3 3 0 0 0-3 3" style="fill:none;stroke:#2ca9bc;stroke-linecap:round;stroke-linejoin:round;stroke-width:2"/></svg>