<svg fill="black" viewBox="0 0 24 24" xml:space="preserve" xmlns="http://www.w3.org/2000/svg"><g/><path d="m20.7 19.3-1-1c-.4-.4-1-.4-1.4 0s-.4 1 0 1.4l1 1c.2.2.5.3.7.3s.5-.1.7-.3c.4-.4.4-1 0-1.4M14 22c0 .6.4 1 1 1s1-.4 1-1v-2c0-.6-.4-1-1-1s-1 .4-1 1zm8-8h-2c-.6 0-1 .4-1 1s.4 1 1 1h2c.6 0 1-.4 1-1s-.4-1-1-1m-1.3-5.6q0-2.1-1.5-3.6t-3.6-1.5c-2.1 0-2.6.5-3.6 1.5L9.8 7c-.4.4-.4 1 0 1.4s1 .4 1.4 0l2.2-2.2c1.2-1.2 3.2-1.2 4.4 0 .6.6.9 1.4.9 2.2s-.3 1.6-.9 2.2l-2.2 2.2c-.4.4-.4 1 0 1.4.2.2.5.3.7.3s.5-.1.7-.3l2.2-2.2q1.5-1.5 1.5-3.6M3.3 15.6q0 2.1 1.5 3.6t3.6 1.5c2.1 0 2.6-.5 3.6-1.5l2.2-2.2c.4-.4.4-1 0-1.4s-1-.4-1.4 0l-2.2 2.2c-1.2 1.2-3.2 1.2-4.4 0-.6-.6-.9-1.4-.9-2.2s.3-1.6.9-2.2l2.2-2.2c.4-.4.4-1 0-1.4s-1-.4-1.4 0L4.8 12q-1.5 1.5-1.5 3.6M5.7 4.3l-1-1c-.4-.4-1-.4-1.4 0s-.4 1 0 1.4l1 1c.2.2.4.3.7.3s.5-.1.7-.3c.4-.4.4-1 0-1.4M10 4V2c0-.6-.4-1-1-1s-1 .4-1 1v2c0 .6.4 1 1 1s1-.4 1-1m-6 6c.6 0 1-.4 1-1s-.4-1-1-1H2c-.6 0-1 .4-1 1s.4 1 1 1z"/></svg>